<svg width="21" height="20" viewBox="0 0 21 20" fill="none" xmlns="http://www.w3.org/2000/svg">
<g clip-path="url(#clip0_8_565)">
<path fill-rule="evenodd" clip-rule="evenodd" d="M9.47114 0.11084C8.36657 0.11084 7.47114 1.00627 7.47114 2.11084V2.6885L7.06262 2.27998C6.28157 1.49893 5.01524 1.49893 4.23419 2.27997L2.77975 3.73442C1.9987 4.51547 1.9987 5.7818 2.77975 6.56285L3.18829 6.97139H2.61084C1.50627 6.97139 0.61084 7.86682 0.61084 8.97139V11.0283C0.61084 12.1329 1.50627 13.0283 2.61084 13.0283H3.18859L2.77993 13.4369C1.99888 14.218 1.99888 15.4843 2.77993 16.2654L4.23438 17.7198C5.01542 18.5009 6.28175 18.5009 7.0628 17.7198L7.47114 17.3115V17.8892C7.47114 18.9937 8.36657 19.8892 9.47114 19.8892H11.528C12.6326 19.8892 13.528 18.9937 13.528 17.8892V17.3111L13.9367 17.7198C14.7177 18.5008 15.9841 18.5008 16.7651 17.7198L18.2196 16.2654C19.0006 15.4843 19.0006 14.218 18.2196 13.4369L17.8109 13.0283H18.3892C19.4937 13.0283 20.3892 12.1329 20.3892 11.0283V8.97139C20.3892 7.86682 19.4937 6.97139 18.3892 6.97139H17.8112L18.2198 6.56287L17.5126 5.85576L18.2198 6.56287C19.0008 5.78182 19.0008 4.5155 18.2198 3.73445L16.7653 2.28C15.9843 1.49895 14.7179 1.49895 13.9369 2.28L13.528 2.68884V2.11084C13.528 1.00627 12.6326 0.11084 11.528 0.11084H9.47114ZM9.47114 2.11084L11.528 2.11084L11.528 2.68884C11.528 4.47065 13.6823 5.36299 14.9423 4.10306L15.3511 3.69421L16.8055 5.14866L16.397 5.55718C15.1371 6.81711 16.0294 8.97139 17.8112 8.97139H18.3892V11.0283L17.8109 11.0283C16.0291 11.0283 15.1368 13.1826 16.3967 14.4425L16.8054 14.8511L15.3509 16.3056L14.9423 15.8969C13.6823 14.637 11.528 15.5293 11.528 17.3111V17.8892H9.47114V17.3115C9.47114 15.5297 7.31686 14.6373 6.05693 15.8973L5.64859 16.3056L4.19414 14.8512L4.6028 14.4425C5.86274 13.1826 4.9704 11.0283 3.18859 11.0283H2.61084V8.97139L3.18829 8.97139C4.9701 8.97139 5.86243 6.81711 4.6025 5.55718L4.19396 5.14863L5.64841 3.69419L6.05693 4.10271C7.31686 5.36264 9.47114 4.47031 9.47114 2.6885V2.11084ZM8.75758 9.99998C8.75758 9.03768 9.53768 8.25758 10.5 8.25758C11.4623 8.25758 12.2424 9.03768 12.2424 9.99998C12.2424 10.9623 11.4623 11.7424 10.5 11.7424C9.53768 11.7424 8.75758 10.9623 8.75758 9.99998ZM10.5 6.25758C8.43311 6.25758 6.75758 7.93311 6.75758 9.99998C6.75758 12.0668 8.43311 13.7424 10.5 13.7424C12.5668 13.7424 14.2424 12.0668 14.2424 9.99998C14.2424 7.93311 12.5668 6.25758 10.5 6.25758Z" fill="#C4C4C4"/>
</g>
<defs>
<clipPath id="clip0_8_565">
<rect width="20" height="20" fill="white" transform="translate(0.5)"/>
</clipPath>
</defs>
</svg>
