<svg width="21" height="20" viewBox="0 0 21 20" fill="none" xmlns="http://www.w3.org/2000/svg">
<g clip-path="url(#clip0_8_550)">
<path fill-rule="evenodd" clip-rule="evenodd" d="M16.3991 5.8875C16.9514 5.8875 17.3991 5.43979 17.3991 4.8875C17.3991 4.33522 16.9514 3.8875 16.3991 3.8875L7.80164 3.8875L9.24072 2.44843C9.63124 2.0579 9.63124 1.42474 9.24072 1.03421C8.85019 0.643689 8.21703 0.643689 7.8265 1.03421L4.68032 4.1804C4.2898 4.57092 4.2898 5.20409 4.68032 5.59461L7.8265 8.74079C8.21703 9.13132 8.85019 9.13132 9.24072 8.74079C9.63124 8.35027 9.63124 7.71711 9.24072 7.32658L7.80164 5.8875H16.3991ZM4.60091 14.1125C4.04862 14.1125 3.60091 14.5603 3.60091 15.1125C3.60091 15.6648 4.04862 16.1125 4.60091 16.1125H13.1983L11.7593 17.5516C11.3687 17.9421 11.3687 18.5753 11.7593 18.9658C12.1498 19.3564 12.783 19.3564 13.1735 18.9658L16.3197 15.8196C16.7102 15.4291 16.7102 14.796 16.3197 14.4054L13.1735 11.2593C12.783 10.8687 12.1498 10.8687 11.7593 11.2593C11.3687 11.6498 11.3687 12.2829 11.7593 12.6735L13.1983 14.1125H4.60091Z" fill="#C4C4C4"/>
</g>
<defs>
<clipPath id="clip0_8_550">
<rect width="20" height="20" fill="white" transform="translate(0.5)"/>
</clipPath>
</defs>
</svg>
